<?xml version="1.0" encoding="UTF-8"?>
<!DOCTYPE svg PUBLIC "-//W3C//DTD SVG 1.1//EN" "http://www.w3.org/Graphics/SVG/1.1/DTD/svg11.dtd">
<!-- Creator: CorelDRAW 2021 (64 Bit) -->
<svg xmlns="http://www.w3.org/2000/svg" xml:space="preserve" width="180.438mm" height="180.488mm" version="1.1" style="shape-rendering:geometricPrecision; text-rendering:geometricPrecision; image-rendering:optimizeQuality; fill-rule:evenodd; clip-rule:evenodd"
viewBox="0 0 18043.82 18048.87"
 xmlns:xlink="http://www.w3.org/1999/xlink"
 xmlns:xodm="http://www.corel.com/coreldraw/odm/2003">
 <defs>
  <style type="text/css">
   <![CDATA[
    .fil1 {fill:black}
    .fil0 {fill:black;fill-rule:nonzero}
   ]]>
  </style>
 </defs>
 <g id="Camada_x0020_1">
  <metadata id="CorelCorpID_0Corel-Layer"/>
  <path id="Line" class="fil0" d="M18025.59 8450.32l-6109.27 -31.88c-282.2,-1340.51 -1471.02,-2349.4 -2896.19,-2349.4 -1425.15,0 -2613.97,1008.9 -2896.19,2349.4l-6105.65 31.19c-12.12,191.46 -18.29,384.56 -18.29,579.08 0,4981.02 4039.14,9020.16 9020.16,9020.16 4981.02,0 9023.66,-4035.61 9023.66,-9020.16 0,-194.32 -6.14,-387.19 -18.24,-578.41l0.01 0.02zm-7372.15 -31.88c70.55,190.49 109.35,395.09 109.35,610.28 0,0 0,0 0,0l3.53 0c0,0 0,0 0,0 0,215.18 -38.8,419.8 -109.35,610.28 -246.93,663.2 -885.43,1132.36 -1633.29,1132.36 -747.86,0 -1386.36,-472.69 -1633.29,-1132.36 -70.55,-190.49 -109.35,-395.09 -109.35,-610.28 0,0 0,0 0,0l-3.53 0c0,0 0,0 0,0 0,-215.18 38.8,-419.8 109.35,-610.28 246.93,-663.2 885.43,-1132.36 1633.29,-1132.36 747.84,0 1386.36,472.69 1633.29,1132.36zm-1682.68 8180.58c-3986.22,0 -7256.34,-3058.46 -7587.93,-6956.48l4741.15 -0.02c282.2,1340.51 1471.02,2349.4 2896.19,2349.4 1425.17,0 2613.97,-1008.9 2896.19,-2349.4l4645.88 0c-335.14,3894.51 -3605.23,6956.5 -7591.46,6956.5l-0.02 0z"/>
  <path class="fil1" d="M9021.91 0c4417.69,0 8093.78,3172.99 8875,7364.18l-5202.04 -27.13c-648.41,-1407.79 -2070.2,-2353.44 -3674.75,-2353.44 -1604.51,0 -3026.28,945.63 -3674.71,2353.36l-5198.41 26.57c781.48,-4190.86 4457.41,-7363.52 8874.89,-7363.52l0.02 -0.02z"/>
 </g>
</svg>
