<?xml version="1.0" encoding="UTF-8"?>
<!DOCTYPE svg PUBLIC "-//W3C//DTD SVG 1.1//EN" "http://www.w3.org/Graphics/SVG/1.1/DTD/svg11.dtd">
<!-- Creator: CorelDRAW 2021 (64 Bit) -->
<svg xmlns="http://www.w3.org/2000/svg" xml:space="preserve" width="180.438mm" height="180.489mm" version="1.1" style="shape-rendering:geometricPrecision; text-rendering:geometricPrecision; image-rendering:optimizeQuality; fill-rule:evenodd; clip-rule:evenodd"
viewBox="0 0 9616.41 9619.11"
 xmlns:xlink="http://www.w3.org/1999/xlink"
 xmlns:xodm="http://www.corel.com/coreldraw/odm/2003">
 <defs>
  <style type="text/css">
   <![CDATA[
    .fil1 {fill:#FEFEFE}
    .fil0 {fill:white;fill-rule:nonzero}
   ]]>
  </style>
 </defs>
 <g id="Camada_x0020_1">
  <metadata id="CorelCorpID_0Corel-Layer"/>
  <path id="Line" class="fil0" d="M9606.7 4503.58l-3255.92 -16.99c-150.4,-714.42 -783.98,-1252.11 -1543.52,-1252.11 -759.53,0 -1393.11,537.69 -1543.52,1252.11l-3253.99 16.62c-6.46,102.04 -9.75,204.95 -9.75,308.62 0,2654.62 2152.65,4807.27 4807.27,4807.27 2654.62,0 4809.14,-2150.77 4809.14,-4807.27 0,-103.56 -3.27,-206.35 -9.72,-308.26zm-3928.97 -16.99c37.6,101.52 58.28,210.56 58.28,325.25 0,0 0,0 0,0l1.88 0c0,0 0,0 0,0 0,114.68 -20.68,223.73 -58.28,325.25 -131.6,353.45 -471.89,603.49 -870.46,603.49 -398.57,0 -738.86,-251.92 -870.46,-603.49 -37.6,-101.52 -58.28,-210.56 -58.28,-325.25 0,0 0,0 0,0l-1.88 0c0,0 0,0 0,0 0,-114.68 20.68,-223.73 58.28,-325.25 131.6,-353.45 471.89,-603.49 870.46,-603.49 398.56,0 738.86,251.92 870.46,603.49zm-896.78 4359.82c-2124.45,0 -3867.25,-1630 -4043.97,-3707.44l2526.78 -0.01c150.4,714.42 783.98,1252.11 1543.52,1252.11 759.54,0 1393.11,-537.69 1543.52,-1252.11l2476.01 0c-178.61,2075.57 -1921.4,3707.45 -4045.85,3707.45z"/>
  <path class="fil1" d="M4808.21 0c2354.4,0 4313.56,1691.04 4729.91,3924.72l-2772.41 -14.46c-345.57,-750.28 -1103.31,-1254.26 -1958.45,-1254.26 -855.12,0 -1612.85,503.97 -1958.43,1254.22l-2770.48 14.16c416.49,-2233.51 2375.57,-3924.37 4729.85,-3924.37z"/>
 </g>
</svg>
